<?xml version="1.0" standalone="no"?>
<!DOCTYPE svg PUBLIC "-//W3C//DTD SVG 20010904//EN"
 "http://www.w3.org/TR/2001/REC-SVG-20010904/DTD/svg10.dtd">
<svg version="1.0" xmlns="http://www.w3.org/2000/svg"
 width="500.000000pt" height="500.000000pt" viewBox="0 0 500.000000 500.000000"
 preserveAspectRatio="xMidYMid meet">

<g transform="translate(0.000000,500.000000) scale(0.100000,-0.100000)"
fill="#000000" stroke="none">
<path d="M2489 4953 c-18 -27 -64 -81 -102 -120 l-70 -73 -31 72 c-41 94 -53
101 -108 62 -107 -75 -684 -726 -934 -1054 -120 -157 -180 -313 -203 -525 -35
-317 -40 -1720 -7 -2055 8 -91 20 -194 27 -230 35 -206 105 -299 263 -351 44
-15 81 -30 83 -35 2 -5 -19 -40 -47 -78 -27 -38 -50 -79 -50 -92 0 -30 39 -59
103 -78 67 -20 97 -41 97 -69 0 -40 -30 -140 -61 -207 -17 -36 -35 -77 -39
-92 l-9 -28 1053 0 1052 0 -3 128 c-1 70 -5 154 -8 188 l-6 61 62 12 c128 26
160 50 139 106 -13 34 -108 170 -163 233 l-39 46 128 33 c176 45 250 81 271
130 21 49 21 120 0 158 -8 17 -73 100 -143 185 -291 354 -1079 1389 -1067
1401 4 4 94 11 199 15 217 8 257 2 374 -54 72 -35 79 -37 206 -40 170 -5 233
7 273 53 17 19 35 54 41 77 7 24 32 115 56 203 56 202 66 303 36 362 -24 46
-22 44 -321 273 -264 203 -547 463 -842 776 -66 70 -97 95 -135 109 -27 10
-50 19 -52 20 -1 2 6 25 17 53 58 146 78 385 38 446 -25 37 -42 33 -78 -21z"/>
</g>
</svg>
